<?xml version="1.0" encoding="UTF-8"?> <svg xmlns="http://www.w3.org/2000/svg" xmlns:xlink="http://www.w3.org/1999/xlink" width="568px" height="379px" viewBox="0 0 568 379" version="1.1"><title>img__ppc-competitors</title><g id="Page-1" stroke="none" stroke-width="1" fill="none" fill-rule="evenodd"><g id="HOTH-PPC" transform="translate(-136.000000, -2309.000000)"><g id="img__ppc-competitors" transform="translate(136.000000, 2309.000000)"><rect id="Rectangle" x="0" y="0" width="568" height="379"></rect><rect id="Rectangle" stroke="#4A4242" stroke-width="3" fill="#FFFFFF" x="14.5" y="41.5" width="253" height="310"></rect><g id="Group-15" transform="translate(66.000000, 257.000000)"><line x1="27.5" y1="4.5" x2="80.5" y2="4.5" id="Path-31" stroke="#D9D5D5" stroke-width="3" stroke-linecap="round"></line><line x1="0.5" y1="16.5" x2="143.5" y2="16.5" id="Path-31" stroke="#3F88C5" stroke-width="3" stroke-linecap="round"></line><line x1="0.5" y1="26.5" x2="143.5" y2="26.5" id="Path-31" stroke="#D9D5D5" stroke-width="3" stroke-linecap="round"></line><line x1="1" y1="37" x2="127" y2="37.0625" id="Path-31" stroke="#D9D5D5" stroke-width="3" stroke-linecap="round"></line><g id="Group-14"><rect id="Rectangle" stroke="#06C155" fill="#F1FFF7" x="0" y="0" width="19" height="8" rx="1"></rect><path d="M6.096,6 L6.348,5.31 L8.136,5.31 L8.388,6 L9.318,6 L7.776,1.998 L6.708,1.998 L5.16,6 L6.096,6 Z M7.902,4.572 L6.576,4.572 L7.242,2.736 L7.902,4.572 Z M10.77,6.072 C11.118,6.072 11.436,5.916 11.664,5.634 L11.664,6 L12.432,6 L12.432,1.998 L11.664,1.998 L11.664,3.474 C11.436,3.18 11.112,3.03 10.77,3.03 C10.032,3.03 9.486,3.606 9.486,4.554 C9.486,5.52 10.038,6.072 10.77,6.072 Z M11.004,5.394 C10.572,5.394 10.272,5.052 10.272,4.554 C10.272,4.05 10.572,3.708 11.004,3.708 C11.262,3.708 11.532,3.846 11.664,4.038 L11.664,5.064 C11.532,5.256 11.262,5.394 11.004,5.394 Z" id="Ad" fill="#09B953" fill-rule="nonzero"></path></g></g><rect id="Rectangle" fill-opacity="0.503086757" fill="#F8F6F6" x="16" y="43" width="250" height="307"></rect><rect id="Rectangle" stroke="#4A4242" stroke-width="2" fill="#FFFFFF" x="45" y="69" width="192" height="163"></rect><polyline id="Path-34" stroke="#D9D5D5" stroke-width="2" stroke-linecap="round" points="43 84 43 234 227 234"></polyline><g id="Group-15" transform="translate(66.000000, 83.000000)"><line x1="27.5" y1="4.5" x2="80.5" y2="4.5" id="Path-31" stroke="#D9D5D5" stroke-width="3" stroke-linecap="round"></line><line x1="0.5" y1="16.5" x2="113.5" y2="16.5" id="Path-31" stroke="#3F88C5" stroke-width="3" stroke-linecap="round"></line><line x1="1" y1="25.25" x2="143.5" y2="25.5" id="Path-31" stroke="#D9D5D5" stroke-width="3" stroke-linecap="round"></line><line x1="13.5" y1="45" x2="59.5" y2="45" id="Path-31" stroke="#D9D5D5" stroke-width="3" stroke-linecap="round"></line><line x1="13.375" y1="52.921875" x2="40.375" y2="52.921875" id="Path-31" stroke="#D9D5D5" stroke-width="3" stroke-linecap="round"></line><line x1="13.25" y1="36.875" x2="40.25" y2="36.875" id="Path-31" stroke="#3F88C5" stroke-width="3" stroke-linecap="round"></line><line x1="86.5" y1="45" x2="132.5" y2="45" id="Path-31" stroke="#D9D5D5" stroke-width="3" stroke-linecap="round"></line><line x1="86.375" y1="52.921875" x2="113.375" y2="52.921875" id="Path-31" stroke="#D9D5D5" stroke-width="3" stroke-linecap="round"></line><line x1="86.25" y1="36.875" x2="113.25" y2="36.875" id="Path-31" stroke="#3F88C5" stroke-width="3" stroke-linecap="round"></line><g id="Group-14"><rect id="Rectangle" stroke="#06C155" fill="#F1FFF7" x="0" y="0" width="19" height="8" rx="1"></rect><path d="M6.096,6 L6.348,5.31 L8.136,5.31 L8.388,6 L9.318,6 L7.776,1.998 L6.708,1.998 L5.16,6 L6.096,6 Z M7.902,4.572 L6.576,4.572 L7.242,2.736 L7.902,4.572 Z M10.77,6.072 C11.118,6.072 11.436,5.916 11.664,5.634 L11.664,6 L12.432,6 L12.432,1.998 L11.664,1.998 L11.664,3.474 C11.436,3.18 11.112,3.03 10.77,3.03 C10.032,3.03 9.486,3.606 9.486,4.554 C9.486,5.52 10.038,6.072 10.77,6.072 Z M11.004,5.394 C10.572,5.394 10.272,5.052 10.272,4.554 C10.272,4.05 10.572,3.708 11.004,3.708 C11.262,3.708 11.532,3.846 11.664,4.038 L11.664,5.064 C11.532,5.256 11.262,5.394 11.004,5.394 Z" id="Ad" fill="#09B953" fill-rule="nonzero"></path></g></g><g id="Group-15" transform="translate(66.000000, 156.000000)"><line x1="27.5" y1="4.5" x2="80.5" y2="4.5" id="Path-31" stroke="#D9D5D5" stroke-width="3" stroke-linecap="round"></line><line x1="0.5" y1="16.5" x2="143.5" y2="16.5" id="Path-31" stroke="#3F88C5" stroke-width="3" stroke-linecap="round"></line><line x1="50" y1="26" x2="144" y2="26" id="Path-31" stroke="#D9D5D5" stroke-width="3" stroke-linecap="round"></line><line x1="1" y1="36.9375" x2="127" y2="37" id="Path-31" stroke="#D9D5D5" stroke-width="3" stroke-linecap="round"></line><line x1="1" y1="47" x2="23" y2="47" id="Path-31" stroke="#3F88C5" stroke-width="3" stroke-linecap="round"></line><line x1="30" y1="47" x2="52" y2="47" id="Path-31" stroke="#3F88C5" stroke-width="3" stroke-linecap="round"></line><line x1="59" y1="47" x2="81" y2="47" id="Path-31" stroke="#3F88C5" stroke-width="3" stroke-linecap="round"></line><g id="Group-14"><rect id="Rectangle" stroke="#06C155" fill="#F1FFF7" x="0" y="0" width="19" height="8" rx="1"></rect><path d="M6.096,6 L6.348,5.31 L8.136,5.31 L8.388,6 L9.318,6 L7.776,1.998 L6.708,1.998 L5.16,6 L6.096,6 Z M7.902,4.572 L6.576,4.572 L7.242,2.736 L7.902,4.572 Z M10.77,6.072 C11.118,6.072 11.436,5.916 11.664,5.634 L11.664,6 L12.432,6 L12.432,1.998 L11.664,1.998 L11.664,3.474 C11.436,3.18 11.112,3.03 10.77,3.03 C10.032,3.03 9.486,3.606 9.486,4.554 C9.486,5.52 10.038,6.072 10.77,6.072 Z M11.004,5.394 C10.572,5.394 10.272,5.052 10.272,4.554 C10.272,4.05 10.572,3.708 11.004,3.708 C11.262,3.708 11.532,3.846 11.664,4.038 L11.664,5.064 C11.532,5.256 11.262,5.394 11.004,5.394 Z" id="Ad" fill="#09B953" fill-rule="nonzero"></path></g><g id="stars" transform="translate(0.000000, 22.000000)" fill="#FFC957"><polygon id="Star" points="4 5.91499256 1.64885899 7.23606798 2.17873385 4.59176524 0.195773935 2.76393202 2.87439562 2.45073848 4 0 5.12560438 2.45073848 7.80422607 2.76393202 5.82126615 4.59176524 6.35114101 7.23606798"></polygon><polygon id="Star" points="13 5.91499256 10.648859 7.23606798 11.1787338 4.59176524 9.19577393 2.76393202 11.8743956 2.45073848 13 0 14.1256044 2.45073848 16.8042261 2.76393202 14.8212662 4.59176524 15.351141 7.23606798"></polygon><polygon id="Star" points="22 5.91499256 19.648859 7.23606798 20.1787338 4.59176524 18.1957739 2.76393202 20.8743956 2.45073848 22 0 23.1256044 2.45073848 25.8042261 2.76393202 23.8212662 4.59176524 24.351141 7.23606798"></polygon><polygon id="Star" points="31 5.91499256 28.648859 7.23606798 29.1787338 4.59176524 27.1957739 2.76393202 29.8743956 2.45073848 31 0 32.1256044 2.45073848 34.8042261 2.76393202 32.8212662 4.59176524 33.351141 7.23606798"></polygon><polygon id="Star" points="40 5.91499256 37.648859 7.23606798 38.1787338 4.59176524 36.1957739 2.76393202 38.8743956 2.45073848 40 0 41.1256044 2.45073848 43.8042261 2.76393202 41.8212662 4.59176524 42.351141 7.23606798"></polygon></g></g><g id="Group-20" transform="translate(248.000000, 63.000000)"><g id="your-ads" transform="translate(72.000000, 4.000000)"><path d="M43.208,13 L43.208,9.82 L46.184,4.996 L43.46,4.996 L41.996,7.696 L40.508,4.996 L37.784,4.996 L40.784,9.82 L40.784,13 L43.208,13 Z M52.084,13.144 C54.556,13.144 56.464,11.464 56.464,9.004 C56.464,6.544 54.556,4.864 52.084,4.864 C49.612,4.864 47.704,6.544 47.704,9.004 C47.704,11.464 49.612,13.144 52.084,13.144 Z M52.084,11.008 C50.92,11.008 50.164,10.12 50.164,9.004 C50.164,7.888 50.92,7 52.084,7 C53.248,7 54.004,7.888 54.004,9.004 C54.004,10.12 53.248,11.008 52.084,11.008 Z M63.18,13.144 C65.88,13.144 67.02,11.692 67.02,9.7 L67.02,4.996 L64.56,4.996 L64.56,9.628 C64.56,10.396 64.164,11.008 63.18,11.008 C62.184,11.008 61.788,10.396 61.788,9.628 L61.788,4.996 L59.328,4.996 L59.328,9.712 C59.328,11.692 60.48,13.144 63.18,13.144 Z M72.74,13 L72.74,10.432 L73.616,10.432 L74.72,13 L77.48,13 L76.028,10.168 C76.664,9.856 77.468,9.124 77.468,7.744 C77.468,6.244 76.46,4.996 74.588,4.996 L70.316,4.996 L70.316,13 L72.74,13 Z M74.216,8.416 L72.74,8.416 L72.74,7.012 L74.216,7.012 C74.624,7.012 75.008,7.276 75.008,7.708 C75.008,8.152 74.624,8.416 74.216,8.416 Z M87.276,13 L87.588,11.968 L90.66,11.968 L90.972,13 L93.6,13 L90.648,4.996 L87.6,4.996 L84.648,13 L87.276,13 Z M90.036,9.952 L88.212,9.952 L89.124,7.132 L90.036,9.952 Z M99.62,13 C102.128,13 104,11.548 104,8.992 C104,6.436 102.128,4.996 99.608,4.996 L96.032,4.996 L96.032,13 L99.62,13 Z M99.608,10.888 L98.456,10.888 L98.456,7.108 L99.62,7.108 C100.916,7.108 101.54,7.912 101.54,8.992 C101.54,10 100.82,10.888 99.608,10.888 Z M109.972,13.144 C112.12,13.144 113.428,12.124 113.428,10.36 C113.428,8.512 111.472,8.128 110.152,7.9 C109.3,7.756 108.976,7.648 108.976,7.336 C108.976,7.132 109.108,6.916 109.708,6.916 C110.344,6.916 111.244,7.18 111.94,7.708 L113.236,5.992 C112.324,5.248 111.148,4.876 109.84,4.876 C107.644,4.876 106.516,6.112 106.516,7.468 C106.516,9.472 108.532,9.784 109.852,10.024 C110.644,10.168 110.98,10.324 110.98,10.636 C110.98,10.948 110.548,11.104 110.092,11.104 C109.012,11.104 108.112,10.648 107.512,10.072 L106.252,11.872 C107.104,12.64 108.268,13.144 109.972,13.144 Z" id="YOURADS" fill="#10C05A" fill-rule="nonzero"></path><g id="dollar-money-bill-dollar-money-bill-payment-purchase-finance" stroke="#4A4242" stroke-width="1.91"><polyline id="Path" stroke-linecap="round" points="17 18.6545455 0.681818182 18.6545455 0.681818182 0.436363636 29.3181818 0.436363636 29.3181818 6.5"></polyline><line x1="4.58181818" y1="9.54545455" x2="7.18636364" y2="9.54545455" id="Path"></line><line x1="22.8136364" y1="9.54545455" x2="25.4181818" y2="9.54545455" id="Path"></line><path d="M12.3954545,13.4454545 L15.6545455,13.4454545 C16.7315007,13.4454545 17.6045455,12.5724098 17.6045455,11.4954545 L17.6045455,11.4954545 C17.6045455,10.4184993 16.7315007,9.54545455 15.6545455,9.54545455 L14.2909091,9.54545455 C13.2139538,9.54545455 12.3409091,8.67240981 12.3409091,7.59545455 L12.3409091,7.59545455 C12.3409091,6.51849928 13.2139538,5.64545455 14.2909091,5.64545455 L17.55,5.64545455" id="Path" stroke-linecap="square"></path><line x1="15" y1="4.33636364" x2="15" y2="5.64545455" id="Path" stroke-linecap="square"></line><line x1="15" y1="13.4454545" x2="15" y2="14.7545455" id="Path" stroke-linecap="square"></line></g><g id="icon--checkmark" transform="translate(21.000000, 12.000000)" fill="#23CE6B" fill-rule="nonzero"><path d="M2.02089485,3.82081194 C1.62205834,3.28589894 0.904121898,3.20755507 0.417338928,3.64582602 C-0.0694440422,4.08409697 -0.140738734,4.87301844 0.258097776,5.40793144 L3.92926375,9.11743433 C4.38262346,9.72547295 5.22775942,9.7294507 5.68584239,9.12570191 L11.0513745,2.05398387 C11.4543663,1.52284478 11.3892241,0.733281157 10.9058755,0.29044415 C10.4225269,-0.152392856 9.70400607,-0.0808098767 9.30101435,0.45032921 L4.81832296,6.35847189 L2.02089485,3.82081194 Z" id="Path-4-Copy-10"></path></g></g><g id="Group-21" transform="translate(72.000000, 184.000000)"><path d="M43.208,14 L43.208,10.82 L46.184,5.996 L43.46,5.996 L41.996,8.696 L40.508,5.996 L37.784,5.996 L40.784,10.82 L40.784,14 L43.208,14 Z M52.084,14.144 C54.556,14.144 56.464,12.464 56.464,10.004 C56.464,7.544 54.556,5.864 52.084,5.864 C49.612,5.864 47.704,7.544 47.704,10.004 C47.704,12.464 49.612,14.144 52.084,14.144 Z M52.084,12.008 C50.92,12.008 50.164,11.12 50.164,10.004 C50.164,8.888 50.92,8 52.084,8 C53.248,8 54.004,8.888 54.004,10.004 C54.004,11.12 53.248,12.008 52.084,12.008 Z M63.18,14.144 C65.88,14.144 67.02,12.692 67.02,10.7 L67.02,5.996 L64.56,5.996 L64.56,10.628 C64.56,11.396 64.164,12.008 63.18,12.008 C62.184,12.008 61.788,11.396 61.788,10.628 L61.788,5.996 L59.328,5.996 L59.328,10.712 C59.328,12.692 60.48,14.144 63.18,14.144 Z M72.74,14 L72.74,11.432 L73.616,11.432 L74.72,14 L77.48,14 L76.028,11.168 C76.664,10.856 77.468,10.124 77.468,8.744 C77.468,7.244 76.46,5.996 74.588,5.996 L70.316,5.996 L70.316,14 L72.74,14 Z M74.216,9.416 L72.74,9.416 L72.74,8.012 L74.216,8.012 C74.624,8.012 75.008,8.276 75.008,8.708 C75.008,9.152 74.624,9.416 74.216,9.416 Z M89.424,14.144 C91.584,14.144 92.652,12.872 93.12,11.804 L91.032,10.844 C90.828,11.468 90.204,12.008 89.424,12.008 C88.32,12.008 87.54,11.12 87.54,10.004 C87.54,8.888 88.32,8 89.424,8 C90.204,8 90.828,8.54 91.032,9.164 L93.12,8.192 C92.64,7.088 91.584,5.864 89.424,5.864 C86.976,5.864 85.08,7.532 85.08,10.004 C85.08,12.464 86.976,14.144 89.424,14.144 Z M99.824,14.144 C102.296,14.144 104.204,12.464 104.204,10.004 C104.204,7.544 102.296,5.864 99.824,5.864 C97.352,5.864 95.444,7.544 95.444,10.004 C95.444,12.464 97.352,14.144 99.824,14.144 Z M99.824,12.008 C98.66,12.008 97.904,11.12 97.904,10.004 C97.904,8.888 98.66,8 99.824,8 C100.988,8 101.744,8.888 101.744,10.004 C101.744,11.12 100.988,12.008 99.824,12.008 Z M109.492,14 L109.492,8.948 L111.28,14 L112.36,14 L114.148,8.948 L114.148,14 L116.572,14 L116.572,5.996 L113.224,5.996 L111.82,10.076 L110.416,5.996 L107.068,5.996 L107.068,14 L109.492,14 Z M122.292,14 L122.292,11.432 L124.14,11.432 C126.012,11.432 127.02,10.232 127.02,8.744 C127.02,7.244 126.012,5.996 124.14,5.996 L119.868,5.996 L119.868,14 L122.292,14 Z M123.828,9.416 L122.292,9.416 L122.292,8.012 L123.828,8.012 C124.236,8.012 124.56,8.288 124.56,8.72 C124.56,9.14 124.236,9.416 123.828,9.416 Z M135.884,14 L135.884,11.984 L132.236,11.984 L132.236,10.964 L135.8,10.964 L135.8,8.948 L132.236,8.948 L132.236,8.012 L135.884,8.012 L135.884,5.996 L129.812,5.996 L129.812,14 L135.884,14 Z M143.104,14 L143.104,8.108 L145.24,8.108 L145.24,5.996 L138.532,5.996 L138.532,8.108 L140.68,8.108 L140.68,14 L143.104,14 Z M150.528,14 L150.528,5.996 L148.104,5.996 L148.104,14 L150.528,14 Z M157.964,14 L157.964,8.108 L160.1,8.108 L160.1,5.996 L153.392,5.996 L153.392,8.108 L155.54,8.108 L155.54,14 L157.964,14 Z M166.672,14.144 C169.144,14.144 171.052,12.464 171.052,10.004 C171.052,7.544 169.144,5.864 166.672,5.864 C164.2,5.864 162.292,7.544 162.292,10.004 C162.292,12.464 164.2,14.144 166.672,14.144 Z M166.672,12.008 C165.508,12.008 164.752,11.12 164.752,10.004 C164.752,8.888 165.508,8 166.672,8 C167.836,8 168.592,8.888 168.592,10.004 C168.592,11.12 167.836,12.008 166.672,12.008 Z M176.34,14 L176.34,11.432 L177.216,11.432 L178.32,14 L181.08,14 L179.628,11.168 C180.264,10.856 181.068,10.124 181.068,8.744 C181.068,7.244 180.06,5.996 178.188,5.996 L173.916,5.996 L173.916,14 L176.34,14 Z M177.816,9.416 L176.34,9.416 L176.34,8.012 L177.816,8.012 C178.224,8.012 178.608,8.276 178.608,8.708 C178.608,9.152 178.224,9.416 177.816,9.416 Z M184.832,10.064 C185.768,9.404 186.332,8.48 186.332,7.424 C186.332,6.44 185.672,5.876 184.94,5.876 C184.268,5.876 183.692,6.44 183.692,7.136 C183.692,7.808 184.16,8.252 184.736,8.252 C184.868,8.252 184.988,8.228 185.048,8.204 C184.892,8.66 184.34,9.188 183.956,9.356 L184.832,10.064 Z M192.412,14.144 C194.56,14.144 195.868,13.124 195.868,11.36 C195.868,9.512 193.912,9.128 192.592,8.9 C191.74,8.756 191.416,8.648 191.416,8.336 C191.416,8.132 191.548,7.916 192.148,7.916 C192.784,7.916 193.684,8.18 194.38,8.708 L195.676,6.992 C194.764,6.248 193.588,5.876 192.28,5.876 C190.084,5.876 188.956,7.112 188.956,8.468 C188.956,10.472 190.972,10.784 192.292,11.024 C193.084,11.168 193.42,11.324 193.42,11.636 C193.42,11.948 192.988,12.104 192.532,12.104 C191.452,12.104 190.552,11.648 189.952,11.072 L188.692,12.872 C189.544,13.64 190.708,14.144 192.412,14.144 Z M205.484,14 L205.796,12.968 L208.868,12.968 L209.18,14 L211.808,14 L208.856,5.996 L205.808,5.996 L202.856,14 L205.484,14 Z M208.244,10.952 L206.42,10.952 L207.332,8.132 L208.244,10.952 Z M217.828,14 C220.336,14 222.208,12.548 222.208,9.992 C222.208,7.436 220.336,5.996 217.816,5.996 L214.24,5.996 L214.24,14 L217.828,14 Z M217.816,11.888 L216.664,11.888 L216.664,8.108 L217.828,8.108 C219.124,8.108 219.748,8.912 219.748,9.992 C219.748,11 219.028,11.888 217.816,11.888 Z M228.18,14.144 C230.328,14.144 231.636,13.124 231.636,11.36 C231.636,9.512 229.68,9.128 228.36,8.9 C227.508,8.756 227.184,8.648 227.184,8.336 C227.184,8.132 227.316,7.916 227.916,7.916 C228.552,7.916 229.452,8.18 230.148,8.708 L231.444,6.992 C230.532,6.248 229.356,5.876 228.048,5.876 C225.852,5.876 224.724,7.112 224.724,8.468 C224.724,10.472 226.74,10.784 228.06,11.024 C228.852,11.168 229.188,11.324 229.188,11.636 C229.188,11.948 228.756,12.104 228.3,12.104 C227.22,12.104 226.32,11.648 225.72,11.072 L224.46,12.872 C225.312,13.64 226.476,14.144 228.18,14.144 Z" id="YOURCOMPETITOR’SADS" fill="#9C9797" fill-rule="nonzero"></path><g id="dollar-money-bill-dollar-money-bill-payment-purchase-finance" stroke="#4A4242" stroke-width="1.91"><polyline id="Path" stroke-linecap="round" points="20 18.6545455 0.681818182 18.6545455 0.681818182 0.436363636 29.3181818 0.436363636 29.3181818 8.5"></polyline><line x1="4.58181818" y1="9.54545455" x2="7.18636364" y2="9.54545455" id="Path"></line><line x1="22.8136364" y1="9.54545455" x2="25.4181818" y2="9.54545455" id="Path"></line><path d="M12.3954545,13.4454545 L15.6545455,13.4454545 C16.7315007,13.4454545 17.6045455,12.5724098 17.6045455,11.4954545 L17.6045455,11.4954545 C17.6045455,10.4184993 16.7315007,9.54545455 15.6545455,9.54545455 L14.2909091,9.54545455 C13.2139538,9.54545455 12.3409091,8.67240981 12.3409091,7.59545455 L12.3409091,7.59545455 C12.3409091,6.51849928 13.2139538,5.64545455 14.2909091,5.64545455 L17.55,5.64545455" id="Path" stroke-linecap="square"></path><line x1="15" y1="4.33636364" x2="15" y2="5.64545455" id="Path" stroke-linecap="square"></line><line x1="15" y1="13.4454545" x2="15" y2="14.7545455" id="Path" stroke-linecap="square"></line></g><g id="icon-cross" transform="translate(25.000000, 13.000000)" stroke="#E22D1B" stroke-linecap="round" stroke-width="2"><line x1="0.571428571" y1="0.571428571" x2="7.42857143" y2="7.42857143" id="Line-13"></line><line x1="0.571428571" y1="0.571428571" x2="7.42857143" y2="7.42857143" id="Line-13" transform="translate(4.000000, 4.000000) scale(-1, 1) translate(-4.000000, -4.000000) "></line></g></g><g id="Group-18" transform="translate(0.000000, 13.000000)" stroke-linecap="round"><line x1="0" y1="0.5" x2="63" y2="0.5" id="Path-35" stroke="#FFFFFF" stroke-width="4"></line><line x1="0" y1="0.5" x2="63" y2="0.5" id="Path-35" stroke="#23CE6B" stroke-width="2" stroke-dasharray="1,4"></line></g><g id="Group-17" transform="translate(0.000000, 194.000000)" stroke-linecap="round"><line x1="0" y1="0.5" x2="63" y2="0.5" id="Path-35" stroke="#FFFFFF" stroke-width="4"></line><line x1="0" y1="0.5" x2="63" y2="0.5" id="Path-35" stroke="#E22D1B" stroke-width="2" stroke-dasharray="1,4"></line></g></g></g></g></g></svg> 