<?xml version="1.0" encoding="UTF-8"?> <svg xmlns="http://www.w3.org/2000/svg" xmlns:xlink="http://www.w3.org/1999/xlink" width="60px" height="60px" viewBox="0 0 60 60" version="1.1"><title>icon__cm</title><g id="Page-1" stroke="none" stroke-width="1" fill="none" fill-rule="evenodd"><g id="HOTH-X" transform="translate(-540.000000, -989.000000)"><g id="Section----Quick-Bites" transform="translate(0.000000, 829.000000)"><g id="list--steps" transform="translate(137.000000, 159.000000)"><g id="step" transform="translate(299.000000, 1.000000)"><g id="icon__cm" transform="translate(104.000000, 0.000000)"><path d="M12,26 C7.33333333,27.3333333 4.66666667,28.6666667 4,30 C3,32 7,47 9,46 C10.3333333,45.3333333 12.6666667,44.6666667 16,44 L12,26 Z" id="Path-10" fill="#FFFFFF"></path><path d="M52.1578585,26 C47.4911918,27.3333333 44.8245251,28.6666667 44.1578585,30 C43.1578585,32 47.1578585,47 49.1578585,46 C50.4911918,45.3333333 52.8245251,44.6666667 56.1578585,44 L52.1578585,26 Z" id="Path-10" fill="#FFFFFF" transform="translate(50.078929, 36.023900) scale(-1, 1) translate(-50.078929, -36.023900) "></path><path d="M10,46 L16,44 L12,26 C12.6666667,14 18.6666667,8 30,8 C41.3333333,8 47.3333333,14 48,26 L44,44 L51,45" id="Path-7" stroke="#4A4242" stroke-width="2"></path><path d="M25.9701425,49.2425356 C25.6737731,50.4280131 25.8986272,51.282591 26.4660873,51.8500511 C27.3804381,52.7644019 28.9298835,53 30,53 C30.9591864,53 32.0460403,52.5782861 32.8619851,51.9255303 C33.4954162,51.4187854 34,50.760011 34,50 C34,49.087923 33.8043384,48.2539947 33.1164873,47.5661437 C32.4466381,46.8962945 31.3712136,46.3735798 29.7574644,45.9701425 C28.454255,45.6443402 27.6489946,45.4267282 27.1570026,45.7689055 C26.5765958,46.1725746 26.4828467,47.1651726 26.1272985,48.6079983 C26.0773848,48.8105497 26.0252748,49.0220066 25.9701425,49.2425356 Z" id="Oval" stroke="#4A4242" stroke-width="2" fill="#D9D5D5"></path><path d="M16,44 C10,45 10,48 7,44 C5,41.3333333 4,36.6666667 4,30 C5.33333333,27.3333333 8,26 12,26" id="Path-8" stroke="#4A4242" stroke-width="2"></path><path d="M56,44 C51.3333333,45.3333333 48.3333333,45.3333333 47,44 C45.6666667,42.6666667 44.6666667,38 44,30 C45.3333333,27.3333333 48,26 52,26" id="Path-8" stroke="#4A4242" stroke-width="2" transform="translate(50.000000, 35.500000) scale(-1, 1) translate(-50.000000, -35.500000) "></path><path d="M46,45 C44,49.6666667 40,51.6666667 34,51" id="Path-9" stroke="#4A4242" stroke-width="2"></path><line x1="24" y1="54" x2="21.5" y2="55.5" id="Path-12" stroke="#E22D1B" stroke-linecap="round"></line><line x1="27.1411733" y1="56.75" x2="26.75" y2="59.25" id="Path-12" stroke="#E22D1B" stroke-linecap="round"></line><line x1="22" y1="50" x2="19" y2="50" id="Path-11" stroke="#E22D1B" stroke-linecap="round"></line></g></g></g></g></g></g></svg> 