<?xml version="1.0" encoding="UTF-8"?> <svg xmlns="http://www.w3.org/2000/svg" xmlns:xlink="http://www.w3.org/1999/xlink" width="46px" height="46px" viewBox="0 0 46 46" version="1.1"><title>icon__health</title><g id="Page-1" stroke="none" stroke-width="1" fill="none" fill-rule="evenodd"><g id="Artboard" transform="translate(-1098.000000, -455.000000)"><g id="icon__health" transform="translate(1098.000000, 455.000000)"><circle id="Oval" fill-opacity="0.12" fill="#193B71" cx="23" cy="23" r="23"></circle><g id="hospital-building-hospital-building-medical-center-healthcare" transform="translate(12.000000, 12.000000)" stroke="#193B71" stroke-width="1.91"><line x1="1.45" y1="0.5" x2="20.55" y2="0.5" id="Path"></line><line x1="8.14" y1="5.27" x2="13.86" y2="5.27" id="Path"></line><line x1="11" y1="2.41" x2="11" y2="8.14" id="Path"></line><line x1="8.14" y1="10.05" x2="10.05" y2="10.05" id="Path"></line><line x1="11.95" y1="10.05" x2="13.86" y2="10.05" id="Path"></line><line x1="8.14" y1="13.86" x2="10.05" y2="13.86" id="Path"></line><line x1="11.95" y1="13.86" x2="13.86" y2="13.86" id="Path"></line><line x1="4.32" y1="10.05" x2="6.23" y2="10.05" id="Path"></line><line x1="4.32" y1="13.86" x2="6.23" y2="13.86" id="Path"></line><line x1="4.32" y1="17.68" x2="6.23" y2="17.68" id="Path"></line><line x1="15.77" y1="10.05" x2="17.68" y2="10.05" id="Path"></line><line x1="15.77" y1="13.86" x2="17.68" y2="13.86" id="Path"></line><line x1="15.77" y1="17.68" x2="17.68" y2="17.68" id="Path"></line><polygon id="Path" points="12.91 21.5 18.64 21.5 21.5 21.5 21.5 9.09 18.64 7.18 18.64 0.5 3.36 0.5 3.36 7.18 0.5 9.09 0.5 21.5 3.36 21.5 9.09 21.5 9.09 17.68 12.91 17.68"></polygon></g></g></g></g></svg> 