<?xml version="1.0" encoding="UTF-8"?> <svg xmlns="http://www.w3.org/2000/svg" xmlns:xlink="http://www.w3.org/1999/xlink" width="60px" height="60px" viewBox="0 0 60 60" version="1.1"><title>icon__campaign-manager</title><defs><polygon id="path-1" points="0 47 60 47 60 0 0 0"></polygon></defs><g id="Page-1" stroke="none" stroke-width="1" fill="none" fill-rule="evenodd"><g id="HOTH-X" transform="translate(-838.000000, -989.000000)"><g id="Section----Quick-Bites" transform="translate(0.000000, 829.000000)"><g id="list--steps" transform="translate(137.000000, 159.000000)"><g id="step" transform="translate(620.000000, 1.000000)"><g id="icon__campaign-manager" transform="translate(81.000000, 0.000000)"><rect id="Rectangle" x="0" y="0" width="60" height="60"></rect><polygon id="Fill-1" fill="#FFFFFF" points="0 51 60 51 60 8 0 8"></polygon><path d="M0,51 L60,51 L60,8 L0,8 L0,51 Z M2,49 L58,49 L58,10 L2,10 L2,49 Z" id="Fill-2" fill="#464646"></path><line x1="6.5" y1="13.5" x2="22.5" y2="13.5" id="Stroke-3" stroke="#464646" stroke-linecap="round"></line><line x1="5" y1="18.5" x2="55" y2="18.5" id="Stroke-4" stroke="#EDEDED" stroke-linecap="round"></line><line x1="5" y1="39.5" x2="55" y2="39.5" id="Stroke-5" stroke="#EDEDED" stroke-linecap="round"></line><polyline id="Stroke-6" stroke="#298EE9" stroke-linecap="round" points="7.5 35.5 23.5 34.5 39.5 28.5 51.5 22.5"></polyline><g id="Group-48" transform="translate(0.000000, 7.000000)"><path d="M25.5,27.5 C25.5,28.604 24.604,29.5 23.5,29.5 C22.396,29.5 21.5,28.604 21.5,27.5 C21.5,26.396 22.396,25.5 23.5,25.5 C24.604,25.5 25.5,26.396 25.5,27.5" id="Fill-7" fill="#298EE9"></path><path d="M25.5,27.5 C25.5,28.604 24.604,29.5 23.5,29.5 C22.396,29.5 21.5,28.604 21.5,27.5 C21.5,26.396 22.396,25.5 23.5,25.5 C24.604,25.5 25.5,26.396 25.5,27.5 Z" id="Stroke-9" stroke="#FFFFFF" stroke-width="2"></path><path d="M41.5,21.5 C41.5,22.604 40.604,23.5 39.5,23.5 C38.396,23.5 37.5,22.604 37.5,21.5 C37.5,20.396 38.396,19.5 39.5,19.5 C40.604,19.5 41.5,20.396 41.5,21.5" id="Fill-11" fill="#298EE9"></path><path d="M41.5,21.5 C41.5,22.604 40.604,23.5 39.5,23.5 C38.396,23.5 37.5,22.604 37.5,21.5 C37.5,20.396 38.396,19.5 39.5,19.5 C40.604,19.5 41.5,20.396 41.5,21.5 Z" id="Stroke-13" stroke="#FFFFFF" stroke-width="2"></path><path d="M53.5,15.5 C53.5,16.604 52.604,17.5 51.5,17.5 C50.396,17.5 49.5,16.604 49.5,15.5 C49.5,14.396 50.396,13.5 51.5,13.5 C52.604,13.5 53.5,14.396 53.5,15.5" id="Fill-15" fill="#298EE9"></path><path d="M53.5,15.5 C53.5,16.604 52.604,17.5 51.5,17.5 C50.396,17.5 49.5,16.604 49.5,15.5 C49.5,14.396 50.396,13.5 51.5,13.5 C52.604,13.5 53.5,14.396 53.5,15.5 Z" id="Stroke-17" stroke="#FFFFFF" stroke-width="2"></path><path d="M9.5,28.5 C9.5,29.604 8.604,30.5 7.5,30.5 C6.396,30.5 5.5,29.604 5.5,28.5 C5.5,27.396 6.396,26.5 7.5,26.5 C8.604,26.5 9.5,27.396 9.5,28.5" id="Fill-19" fill="#298EE9"></path><path d="M9.5,28.5 C9.5,29.604 8.604,30.5 7.5,30.5 C6.396,30.5 5.5,29.604 5.5,28.5 C5.5,27.396 6.396,26.5 7.5,26.5 C8.604,26.5 9.5,27.396 9.5,28.5 Z" id="Stroke-21" stroke="#FFFFFF" stroke-width="2"></path><polyline id="Stroke-23" stroke="#E1443D" stroke-linecap="round" points="7.5 21.5 23.5 19.5 39.5 28.5 51.5 28.5"></polyline><path d="M9.5,21.5 C9.5,22.604 8.604,23.5 7.5,23.5 C6.396,23.5 5.5,22.604 5.5,21.5 C5.5,20.396 6.396,19.5 7.5,19.5 C8.604,19.5 9.5,20.396 9.5,21.5" id="Fill-25" fill="#E1443D"></path><path d="M9.5,21.5 C9.5,22.604 8.604,23.5 7.5,23.5 C6.396,23.5 5.5,22.604 5.5,21.5 C5.5,20.396 6.396,19.5 7.5,19.5 C8.604,19.5 9.5,20.396 9.5,21.5 Z" id="Stroke-27" stroke="#FFFFFF" stroke-width="2"></path><path d="M25.5,19.5 C25.5,20.604 24.604,21.5 23.5,21.5 C22.396,21.5 21.5,20.604 21.5,19.5 C21.5,18.396 22.396,17.5 23.5,17.5 C24.604,17.5 25.5,18.396 25.5,19.5" id="Fill-29" fill="#E1443D"></path><path d="M25.5,19.5 C25.5,20.604 24.604,21.5 23.5,21.5 C22.396,21.5 21.5,20.604 21.5,19.5 C21.5,18.396 22.396,17.5 23.5,17.5 C24.604,17.5 25.5,18.396 25.5,19.5 Z" id="Stroke-31" stroke="#FFFFFF" stroke-width="2"></path><path d="M41.5,28.5 C41.5,29.604 40.604,30.5 39.5,30.5 C38.396,30.5 37.5,29.604 37.5,28.5 C37.5,27.396 38.396,26.5 39.5,26.5 C40.604,26.5 41.5,27.396 41.5,28.5" id="Fill-33" fill="#E1443D"></path><path d="M41.5,28.5 C41.5,29.604 40.604,30.5 39.5,30.5 C38.396,30.5 37.5,29.604 37.5,28.5 C37.5,27.396 38.396,26.5 39.5,26.5 C40.604,26.5 41.5,27.396 41.5,28.5 Z" id="Stroke-35" stroke="#FFFFFF" stroke-width="2"></path><mask id="mask-2" fill="white"><use xlink:href="#path-1"></use></mask><g id="Clip-38"></g><polygon id="Fill-37" fill="#FFC957" mask="url(#mask-2)" points="44.5 37.5 58.5 37.5 58.5 23.5 44.5 23.5"></polygon><path d="M44,38 L59,38 L59,23 L44,23 L44,38 Z M45,37 L58,37 L58,24 L45,24 L45,37 Z" id="Fill-39" fill="#464646" mask="url(#mask-2)"></path><path d="M51.5,34.5 C49.294,34.5 47.5,32.706 47.5,30.5 C47.5,28.294 49.294,26.5 51.5,26.5 C53.706,26.5 55.5,28.294 55.5,30.5 C55.5,32.706 53.706,34.5 51.5,34.5" id="Fill-40" fill="#FFFFFF" mask="url(#mask-2)"></path><path d="M51.5,26 C49.015,26 47,28.015 47,30.5 C47,32.985 49.015,35 51.5,35 C53.985,35 56,32.985 56,30.5 C56,28.015 53.985,26 51.5,26 M51.5,27 C53.43,27 55,28.57 55,30.5 C55,32.43 53.43,34 51.5,34 C49.57,34 48,32.43 48,30.5 C48,28.57 49.57,27 51.5,27" id="Fill-41" fill="#464646" mask="url(#mask-2)"></path><path d="M50,30.5 C50,30.776 49.776,31 49.5,31 C49.224,31 49,30.776 49,30.5 C49,30.224 49.224,30 49.5,30 C49.776,30 50,30.224 50,30.5" id="Fill-42" fill="#464646" mask="url(#mask-2)"></path><path d="M54,30.5 C54,30.776 53.776,31 53.5,31 C53.224,31 53,30.776 53,30.5 C53,30.224 53.224,30 53.5,30 C53.776,30 54,30.224 54,30.5" id="Fill-43" fill="#464646" mask="url(#mask-2)"></path><polygon id="Fill-44" fill="#EAEAEA" mask="url(#mask-2)" points="2 42 58 42 58 38 2 38"></polygon><polygon id="Fill-45" fill="#E1443D" mask="url(#mask-2)" points="2 42 18 42 18 38 2 38"></polygon><line x1="1" y1="37.5" x2="45" y2="37.5" id="Stroke-46" stroke="#464646" mask="url(#mask-2)"></line><path d="M59.0625,46 L0.9375,46 C0.42,46 0,45.553 0,45 C0,44.447 0.42,44 0.9375,44 L59.0625,44 C59.58,44 60,44.447 60,45 C60,45.553 59.58,46 59.0625,46" id="Fill-47" fill="#FFFFFF" mask="url(#mask-2)"></path></g></g></g></g></g></g></g></svg> 