<?xml version="1.0" encoding="UTF-8"?> <svg xmlns="http://www.w3.org/2000/svg" xmlns:xlink="http://www.w3.org/1999/xlink" width="60px" height="60px" viewBox="0 0 60 60" version="1.1"><title>icon__strategy</title><g id="Page-1" stroke="none" stroke-width="1" fill="none" fill-rule="evenodd"><g id="HOTH-X" transform="translate(-241.000000, -988.000000)"><g id="Section----Quick-Bites" transform="translate(0.000000, 829.000000)"><g id="list--steps" transform="translate(137.000000, 159.000000)"><g id="step"><g id="icon__strategy" transform="translate(104.000000, 0.000000)"><rect id="Rectangle" x="0" y="0" width="60" height="60"></rect><polygon id="Fill-1" fill="#E8C58B" points="3 50 58 50 58 10 3 10"></polygon><polygon id="Fill-3" fill="#FFFFFF" points="6 47 56 47 56 12 6 12"></polygon><path d="M5,47 L56,47 L56,12 L5,12 L5,47 Z M6,46 L55,46 L55,13 L6,13 L6,46 Z" id="Fill-4" fill="#464646"></path><g id="Group-39" transform="translate(0.000000, 8.000000)"><path d="M15,32.25 C15,33.3862979 14.0845455,34.3085106 12.9545455,34.3085106 C11.8245455,34.3085106 10.9090909,33.3862979 10.9090909,32.25 C10.9090909,31.1137021 11.8245455,30.1914894 12.9545455,30.1914894 C14.0845455,30.1914894 15,31.1137021 15,32.25" id="Fill-5" fill="#FFFFFF"></path><path d="M15,32.25 C15,33.3862979 14.0845455,34.3085106 12.9545455,34.3085106 C11.8245455,34.3085106 10.9090909,33.3862979 10.9090909,32.25 C10.9090909,31.1137021 11.8245455,30.1914894 12.9545455,30.1914894 C14.0845455,30.1914894 15,31.1137021 15,32.25 Z" id="Stroke-7" stroke="#E1443D"></path><line x1="26.8181818" y1="12.3510638" x2="30.4545455" y2="16.0106383" id="Stroke-9" stroke="#298EE9" stroke-linecap="round"></line><line x1="26.8181818" y1="16.0106383" x2="30.4545455" y2="12.3510638" id="Stroke-11" stroke="#298EE9" stroke-linecap="round"></line><line x1="13.1818182" y1="12.3510638" x2="16.8181818" y2="16.0106383" id="Stroke-13" stroke="#298EE9" stroke-linecap="round"></line><line x1="13.1818182" y1="16.0106383" x2="16.8181818" y2="12.3510638" id="Stroke-15" stroke="#298EE9" stroke-linecap="round"></line><path d="M45.9090909,25.8457447 C45.9090909,26.9820426 44.9927273,27.9042553 43.8636364,27.9042553 C42.7345455,27.9042553 41.8181818,26.9820426 41.8181818,25.8457447 C41.8181818,24.7094468 42.7345455,23.787234 43.8636364,23.787234 C44.9927273,23.787234 45.9090909,24.7094468 45.9090909,25.8457447" id="Fill-17" fill="#FFFFFF"></path><path d="M45.9090909,25.8457447 C45.9090909,26.9820426 44.9927273,27.9042553 43.8636364,27.9042553 C42.7345455,27.9042553 41.8181818,26.9820426 41.8181818,25.8457447 C41.8181818,24.7094468 42.7345455,23.787234 43.8636364,23.787234 C44.9927273,23.787234 45.9090909,24.7094468 45.9090909,25.8457447 Z" id="Stroke-19" stroke="#E1443D"></path><g id="Group-24" transform="translate(12.727273, 10.978723)"><path d="M35,0.457446809 C35,0.457446809 27.7272727,10.5212766 14.0909091,9.60638298 C0.454545455,8.69148936 0.454545455,18.7553191 0.454545455,18.7553191" id="Fill-21" fill="#FFFFFF"></path><path d="M35,0.457446809 C35,0.457446809 27.7272727,10.5212766 14.0909091,9.60638298 C0.454545455,8.69148936 0.454545455,18.7553191 0.454545455,18.7553191" id="Stroke-23" stroke="#E1443D" stroke-linecap="round"></path></g><line x1="26.8181818" y1="26.9893617" x2="30.4545455" y2="30.6489362" id="Stroke-25" stroke="#298EE9" stroke-linecap="round"></line><line x1="26.8181818" y1="30.6489362" x2="30.4545455" y2="26.9893617" id="Stroke-27" stroke="#298EE9" stroke-linecap="round"></line><polyline id="Stroke-29" stroke="#E1443D" stroke-linecap="round" stroke-linejoin="round" points="44.0909091 11.4361702 47.7272727 11.4361702 47.7272727 15.0957447"></polyline><path d="M2.72727273,27.9042553 C1.97545455,27.9042553 1.36363636,27.2885319 1.36363636,26.5319149 L1.36363636,16.4680851 C1.36363636,15.7114681 1.97545455,15.0957447 2.72727273,15.0957447 L5.45454545,15.0957447 C6.20636364,15.0957447 6.81818182,15.7114681 6.81818182,16.4680851 L6.81818182,26.5319149 C6.81818182,27.2885319 6.20636364,27.9042553 5.45454545,27.9042553 L2.72727273,27.9042553 Z" id="Fill-31" fill="#EDEDED"></path><path d="M5.45454545,14.6382979 L2.72727273,14.6382979 C1.72363636,14.6382979 0.909090909,15.4580426 0.909090909,16.4680851 L0.909090909,26.5319149 C0.909090909,27.5419574 1.72363636,28.3617021 2.72727273,28.3617021 L5.45454545,28.3617021 C6.45818182,28.3617021 7.27272727,27.5419574 7.27272727,26.5319149 L7.27272727,16.4680851 C7.27272727,15.4580426 6.45818182,14.6382979 5.45454545,14.6382979 M5.45454545,15.5531915 C5.95545455,15.5531915 6.36363636,15.9630638 6.36363636,16.4680851 L6.36363636,26.5319149 C6.36363636,27.0369362 5.95545455,27.4468085 5.45454545,27.4468085 L2.72727273,27.4468085 C2.22636364,27.4468085 1.81818182,27.0369362 1.81818182,26.5319149 L1.81818182,16.4680851 C1.81818182,15.9630638 2.22636364,15.5531915 2.72727273,15.5531915 L5.45454545,15.5531915" id="Fill-33" fill="#464646"></path><path d="M60,0 L59.0909091,0 L2,0 L1.09090909,0 L1.09090909,0.914893617 L1.09090909,13.880766 C0.0327272727,14.2577021 -0.000571060603,15.2750638 -0.000571060603,16.4680851 L-0.000571060603,26.5319149 C-0.000571060603,27.7249362 -0.0581818182,28.6230638 1,29 L1,41.9658723 L1,42.880766 L1.90909091,42.880766 L59.0909091,43 L60,43 L60,42.0851064 L60,0.914893617 L60,0 Z M58,2 L58,41 L3,41 L3,28 C1.99636364,28 0.909090909,27.5419574 0.909090909,26.5319149 L0.909090909,16.4680851 C0.909090909,15.4580426 1.99636364,15 3,15 L3,2 L58,2 Z" id="Fill-35" fill="#464646"></path><path d="M59.078125,45 L1.921875,45 C1.413,45 1,44.553 1,44 C1,43.447 1.413,43 1.921875,43 L59.078125,43 C59.587,43 60,43.447 60,44 C60,44.553 59.587,45 59.078125,45" id="Fill-47" fill="#FFFFFF"></path></g></g></g></g></g></g></g></svg> 