<svg width="66" height="65" xmlns="http://www.w3.org/2000/svg" xmlns:xlink="http://www.w3.org/1999/xlink"><defs><path id="a" d="M0 63.756h65.472V0H0z"/><path id="c" d="M0 63.756h65.472V0H0z"/><path id="e" d="M0 63.756h65.472V0H0z"/><path id="g" d="M0 63.756h65.472V0H0z"/><path id="i" d="M0 63.756h65.472V0H0z"/><path id="k" d="M0 63.756h65.472V0H0z"/><path id="m" d="M0 63.756h65.472V0H0z"/><path id="o" d="M0 63.756h65.472V0H0z"/><path id="q" d="M0 63.756h65.472V0H0z"/><path id="s" d="M0 63.756h65.472V0H0z"/><path id="u" d="M0 63.756h65.472V0H0z"/><path id="w" d="M0 63.756h65.472V0H0z"/><path id="y" d="M0 63.756h65.472V0H0z"/></defs><g fill="none" fill-rule="evenodd"><path fill="#FFF" d="M12.11 21L26 15.39 19.546 0 6 4.65z"/><path fill="#E8C58B" fill-rule="nonzero" d="M14.407 62.042h36.665V37.588H14.407z"/><path d="M14.407 62.042h36.665V37.588H14.407v24.454zm1.746-1.747h33.173v-20.96H16.153v20.96z" fill="#464646" fill-rule="nonzero"/><path d="M51.072 63.789H14.407a.873.873 0 110-1.747h36.665a.873.873 0 110 1.747" fill="#EAEAEA" fill-rule="nonzero"/><path d="M54.826 24.464l4.362 5.363a4.838 4.838 0 11-7.506 6.11l-4.36-5.364a4.841 4.841 0 01.698-6.808 4.837 4.837 0 016.806.7" fill="#FFF" fill-rule="nonzero"/><path d="M48.393 29.7l1.745 2.146 1.019-.829-1.745-2.145a2.143 2.143 0 113.323-2.706l1.745 2.145 1.019-.828-1.745-2.146a3.457 3.457 0 00-5.361 4.364zm7.143 2.209l-3.49-4.29-1.073.872 3.49 4.291 1.073-.873zm1.251 2.636a2.143 2.143 0 01-3.013-.31l-1.745-2.145-1.019.83 1.745 2.144a3.456 3.456 0 105.361-4.364l-1.745-2.145-1.019.829 1.745 2.146a2.146 2.146 0 01-.31 3.015z" fill="#464646" fill-rule="nonzero"/><path fill="#298EE9" fill-rule="nonzero" d="M45.5 17.118l1.743 1.466L44.12 22.3l-3.042-2.562-4.742 5.648 1.072.902 3.84-4.566 3.043 2.56 4.032-4.787 1.743 1.465-.364-4.203z"/><path d="M13.474 28.944l1.177-1.735 3.715 2.522-1.178 1.735-3.714-2.522zm-7.306.105l1.177-1.733 8.668 5.884-1.177 1.734-8.668-5.885zm.247 5.234l1.26-1.858 6.069 4.12-1.26 1.858-6.069-4.12z" fill="#E1443D" fill-rule="nonzero"/><path d="M28.106 10.29l-12.64 5.068L21.31 29.95l12.642-5.068-5.846-14.593zm-.97 2.271l4.545 11.35-9.4 3.768-4.545-11.349 9.4-3.769z" fill="#464646" fill-rule="nonzero"/><path d="M19.7 17.958a.437.437 0 01-.162-.842l4.052-1.623a.435.435 0 11.324.81l-4.051 1.624a.443.443 0 01-.162.031" fill="#464646" fill-rule="nonzero"/><path d="M20.675 20.39a.437.437 0 01-.163-.841l5.673-2.274a.436.436 0 01.325.81l-5.673 2.274a.443.443 0 01-.162.032m.974 2.431a.437.437 0 01-.163-.842l5.673-2.273a.436.436 0 11.324.81l-5.672 2.274a.443.443 0 01-.162.031" fill="gray" fill-rule="nonzero"/><g transform="translate(.003 .033)"><mask id="b" fill="#fff"><use xlink:href="#a"/></mask><path fill="#D1B27F" fill-rule="nonzero" mask="url(#b)" d="M16.15 49.782h33.173v-1.747H16.15z"/></g><g transform="translate(.003 .033)"><mask id="d" fill="#fff"><use xlink:href="#c"/></mask><path fill="#E5CCA8" fill-rule="nonzero" mask="url(#d)" d="M14.404 37.555l-4.365 10.48h45.394l-4.365-10.48z"/></g><g transform="translate(.003 .033)"><mask id="f" fill="#fff"><use xlink:href="#e"/></mask><path d="M51.068 37.555H14.404l-4.365 10.48h45.394l-4.365-10.48zm-1.163 1.747l2.91 6.987H12.657l2.91-6.987h34.337z" fill="#464646" fill-rule="nonzero" mask="url(#f)"/></g><g transform="translate(.003 .033)"><mask id="h" fill="#fff"><use xlink:href="#g"/></mask><path fill="gray" fill-rule="nonzero" mask="url(#h)" d="M24.88 58.08h-6.111 3.055z"/></g><g transform="translate(.003 .033)"><mask id="j" fill="#fff"><use xlink:href="#i"/></mask><path fill="#464646" fill-rule="nonzero" mask="url(#j)" d="M18.769 58.516h6.11v-.873h-6.11z"/></g><g transform="translate(.003 .033)"><mask id="l" fill="#fff"><use xlink:href="#k"/></mask><path d="M10.896 20.966a1.555 1.555 0 111.02-1.948c.257.821-.2 1.692-1.02 1.948zm1.98-.617l-.262.08-.12-.06a2.245 2.245 0 10-4.206-.22 2.246 2.246 0 004.048.524l.118.064.08.26 2.163 1.132.339-.644-2.16-1.136z" fill="#464646" fill-rule="nonzero" mask="url(#l)"/></g><g transform="translate(.003 .033)"><mask id="n" fill="#fff"><use xlink:href="#m"/></mask><path d="M38.253 6.916a4.476 4.476 0 00-4.99 3.896l-.426 3.456a1.49 1.49 0 001.298 1.664l1.48.183.488-3.95-1.975-.244.123-.986a3.478 3.478 0 013.88-3.031 3.48 3.48 0 013.03 3.882l-.123.988-1.974-.244-.487 3.95 1.975.243-.061.495-3.456-.426-.121.987 2.961.365a1.49 1.49 0 001.663-1.298l.609-4.938a4.477 4.477 0 00-3.894-4.992" fill="#464646" fill-rule="nonzero" mask="url(#n)"/></g><g transform="translate(.003 .033)"><mask id="p" fill="#fff"><use xlink:href="#o"/></mask><path d="M64.6 38.865h-4.365a.873.873 0 110-1.747h4.364a.873.873 0 110 1.747" fill="#FFC957" fill-rule="nonzero" mask="url(#p)"/></g><g transform="translate(.003 .033)"><mask id="r" fill="#fff"><use xlink:href="#q"/></mask><path d="M5.238 39.738H.873a.873.873 0 110-1.746h4.365a.873.873 0 110 1.746" fill="#FFC957" fill-rule="nonzero" mask="url(#r)"/></g><g transform="translate(.003 .033)"><mask id="t" fill="#fff"><use xlink:href="#s"/></mask><path d="M32.736 6.114a.873.873 0 01-.873-.874V.873a.873.873 0 111.746 0V5.24a.873.873 0 01-.873.874" fill="#FFC957" fill-rule="nonzero" mask="url(#t)"/></g><g transform="translate(.003 .033)"><mask id="v" fill="#fff"><use xlink:href="#u"/></mask><path d="M12.892 15.081a.87.87 0 01-.618-.256l-3.086-3.087a.873.873 0 111.235-1.235l3.086 3.087a.873.873 0 01-.617 1.491" fill="#FFC957" fill-rule="nonzero" mask="url(#v)"/></g><g transform="translate(.003 .033)"><mask id="x" fill="#fff"><use xlink:href="#w"/></mask><path fill="#E5CCA8" fill-rule="nonzero" mask="url(#x)" d="M16.15 49.782h33.173v10.48H16.15z"/></g><g transform="translate(.003 .033)"><mask id="z" fill="#fff"><use xlink:href="#y"/></mask><path d="M51.708 15.081a.873.873 0 01-.617-1.49l3.086-3.088a.873.873 0 111.234 1.235l-3.086 3.087a.87.87 0 01-.617.256" fill="#FFC957" fill-rule="nonzero" mask="url(#z)"/></g></g></svg>